<svg width="134" height="21" viewBox="0 0 134 21" fill="none" xmlns="http://www.w3.org/2000/svg">
<path d="M18.368 3.32V20H15.632V8.576L10.544 20H8.648L3.536 8.576V20H0.8V3.32H3.752L9.608 16.4L15.44 3.32H18.368ZM34.0841 13.064C34.0841 13.56 34.0521 14.008 33.9881 14.408H23.8841C23.9641 15.464 24.3561 16.312 25.0601 16.952C25.7641 17.592 26.6281 17.912 27.6521 17.912C29.1241 17.912 30.1641 17.296 30.7721 16.064H33.7241C33.3241 17.28 32.5961 18.28 31.5401 19.064C30.5001 19.832 29.2041 20.216 27.6521 20.216C26.3881 20.216 25.2521 19.936 24.2441 19.376C23.2521 18.8 22.4681 18 21.8921 16.976C21.3321 15.936 21.0521 14.736 21.0521 13.376C21.0521 12.016 21.3241 10.824 21.8681 9.8C22.4281 8.76 23.2041 7.96 24.1961 7.4C25.2041 6.84 26.3561 6.56 27.6521 6.56C28.9001 6.56 30.0121 6.832 30.9881 7.376C31.9641 7.92 32.7241 8.688 33.2681 9.68C33.8121 10.656 34.0841 11.784 34.0841 13.064ZM31.2281 12.2C31.2121 11.192 30.8521 10.384 30.1481 9.776C29.4441 9.168 28.5721 8.864 27.5321 8.864C26.5881 8.864 25.7801 9.168 25.1081 9.776C24.4361 10.368 24.0361 11.176 23.9081 12.2H31.2281ZM42.5126 20.216C41.2646 20.216 40.1366 19.936 39.1286 19.376C38.1206 18.8 37.3286 18 36.7526 16.976C36.1766 15.936 35.8886 14.736 35.8886 13.376C35.8886 12.032 36.1846 10.84 36.7766 9.8C37.3686 8.76 38.1766 7.96 39.2006 7.4C40.2246 6.84 41.3686 6.56 42.6326 6.56C43.8966 6.56 45.0406 6.84 46.0646 7.4C47.0886 7.96 47.8966 8.76 48.4886 9.8C49.0806 10.84 49.3766 12.032 49.3766 13.376C49.3766 14.72 49.0726 15.912 48.4646 16.952C47.8566 17.992 47.0246 18.8 45.9686 19.376C44.9286 19.936 43.7766 20.216 42.5126 20.216ZM42.5126 17.84C43.2166 17.84 43.8726 17.672 44.4806 17.336C45.1046 17 45.6086 16.496 45.9926 15.824C46.3766 15.152 46.5686 14.336 46.5686 13.376C46.5686 12.416 46.3846 11.608 46.0166 10.952C45.6486 10.28 45.1606 9.776 44.5526 9.44C43.9446 9.104 43.2886 8.936 42.5846 8.936C41.8806 8.936 41.2246 9.104 40.6166 9.44C40.0246 9.776 39.5526 10.28 39.2006 10.952C38.8486 11.608 38.6726 12.416 38.6726 13.376C38.6726 14.8 39.0326 15.904 39.7526 16.688C40.4886 17.456 41.4086 17.84 42.5126 17.84ZM69.8413 6.776L65.7373 20H62.8573L60.1933 10.232L57.5293 20H54.6493L50.5213 6.776H53.3053L56.0653 17.408L58.8733 6.776H61.7293L64.4173 17.36L67.1533 6.776H69.8413ZM77.2083 11.624C77.2083 9.992 77.5843 8.528 78.3363 7.232C79.1043 5.936 80.1363 4.928 81.4323 4.208C82.7443 3.472 84.1763 3.104 85.7283 3.104C87.5043 3.104 89.0803 3.544 90.4563 4.424C91.8483 5.288 92.8563 6.52 93.4803 8.12H90.1923C89.7603 7.24 89.1603 6.584 88.3923 6.152C87.6243 5.72 86.7363 5.504 85.7283 5.504C84.6243 5.504 83.6403 5.752 82.7763 6.248C81.9123 6.744 81.2323 7.456 80.7363 8.384C80.2563 9.312 80.0163 10.392 80.0163 11.624C80.0163 12.856 80.2563 13.936 80.7363 14.864C81.2323 15.792 81.9123 16.512 82.7763 17.024C83.6403 17.52 84.6243 17.768 85.7283 17.768C86.7363 17.768 87.6243 17.552 88.3923 17.12C89.1603 16.688 89.7603 16.032 90.1923 15.152H93.4803C92.8563 16.752 91.8483 17.984 90.4563 18.848C89.0803 19.712 87.5043 20.144 85.7283 20.144C84.1603 20.144 82.7283 19.784 81.4323 19.064C80.1363 18.328 79.1043 17.312 78.3363 16.016C77.5843 14.72 77.2083 13.256 77.2083 11.624ZM95.7708 13.328C95.7708 12 96.0428 10.824 96.5868 9.8C97.1468 8.776 97.8988 7.984 98.8428 7.424C99.8028 6.848 100.859 6.56 102.011 6.56C103.051 6.56 103.955 6.768 104.723 7.184C105.507 7.584 106.131 8.088 106.595 8.696V6.776H109.355V20H106.595V18.032C106.131 18.656 105.499 19.176 104.699 19.592C103.899 20.008 102.987 20.216 101.963 20.216C100.827 20.216 99.7868 19.928 98.8428 19.352C97.8988 18.76 97.1468 17.944 96.5868 16.904C96.0428 15.848 95.7708 14.656 95.7708 13.328ZM106.595 13.376C106.595 12.464 106.403 11.672 106.019 11C105.651 10.328 105.163 9.816 104.555 9.464C103.947 9.112 103.291 8.936 102.587 8.936C101.883 8.936 101.227 9.112 100.619 9.464C100.011 9.8 99.5148 10.304 99.1308 10.976C98.7628 11.632 98.5788 12.416 98.5788 13.328C98.5788 14.24 98.7628 15.04 99.1308 15.728C99.5148 16.416 100.011 16.944 100.619 17.312C101.243 17.664 101.899 17.84 102.587 17.84C103.291 17.84 103.947 17.664 104.555 17.312C105.163 16.96 105.651 16.448 106.019 15.776C106.403 15.088 106.595 14.288 106.595 13.376ZM118.492 9.008H116.044V20H113.284V9.008H111.724V6.776H113.284V5.84C113.284 4.32 113.684 3.216 114.484 2.528C115.3 1.824 116.572 1.472 118.3 1.472V3.752C117.468 3.752 116.884 3.912 116.548 4.232C116.212 4.536 116.044 5.072 116.044 5.84V6.776H118.492V9.008ZM133.037 13.064C133.037 13.56 133.005 14.008 132.941 14.408H122.837C122.917 15.464 123.309 16.312 124.013 16.952C124.717 17.592 125.581 17.912 126.605 17.912C128.077 17.912 129.117 17.296 129.725 16.064H132.677C132.277 17.28 131.549 18.28 130.493 19.064C129.453 19.832 128.157 20.216 126.605 20.216C125.341 20.216 124.205 19.936 123.197 19.376C122.205 18.8 121.421 18 120.845 16.976C120.285 15.936 120.005 14.736 120.005 13.376C120.005 12.016 120.277 10.824 120.821 9.8C121.381 8.76 122.157 7.96 123.149 7.4C124.157 6.84 125.309 6.56 126.605 6.56C127.853 6.56 128.965 6.832 129.941 7.376C130.917 7.92 131.677 8.688 132.221 9.68C132.765 10.656 133.037 11.784 133.037 13.064ZM130.181 12.2C130.165 11.192 129.805 10.384 129.101 9.776C128.397 9.168 127.525 8.864 126.485 8.864C125.541 8.864 124.733 9.168 124.061 9.776C123.389 10.368 122.989 11.176 122.861 12.2H130.181ZM129.005 3.224L123.701 5.84V3.824L129.005 0.895998V3.224Z" fill="#1A1A1A"/>
</svg>
